<svg xmlns="http://www.w3.org/2000/svg" viewBox="0 0 600 600"><rect width="600" height="600" fill="#f7c86a"/><circle cx="470" cy="115" r="70" fill="#fff1b0"/><path d="M0 370 Q120 300 240 370 T480 360 T600 370 V600 H0Z" fill="#bd853f"/><path d="M0 475 Q130 400 270 475 T600 465 V600 H0Z" fill="#6b9e45"/><g stroke="#5a3d2c" stroke-width="12" stroke-linecap="round" fill="none"><path d="M235 390 Q200 310 220 235"/><path d="M365 390 Q405 310 380 235"/></g><path d="M210 235 Q300 180 390 235 L365 410 Q300 465 235 410Z" fill="#e4a735" stroke="#5a3d2c" stroke-width="12"/><path d="M245 235 L265 420 M305 205 L305 445 M365 235 L345 420" stroke="#5a3d2c" stroke-width="12" fill="none"/><circle cx="260" cy="185" r="35" fill="#7a4c35"/><circle cx="340" cy="185" r="35" fill="#7a4c35"/><circle cx="260" cy="180" r="10" fill="#fff"/><circle cx="340" cy="180" r="10" fill="#fff"/><path d="M275 220 Q300 240 325 220" fill="none" stroke="#5a3d2c" stroke-width="8"/></svg>
